<svg width="3414" height="1024" viewBox="0 0 3414 1024" fill="none" xmlns="http://www.w3.org/2000/svg">
<path d="M254.933 271.6L97.3333 272L97.0667 288.4C96.9333 297.333 96.9333 305.867 96.9333 307.333C97.0667 308.8 97.6 335.333 98.1333 366.267C98.6667 397.333 99.4667 422.667 100 422.667C100.533 422.667 105.067 421.2 110.133 419.467C208.267 385.467 218 382.267 219.867 384.533C220.533 385.333 227.333 398.267 234.933 413.333C255.867 454.267 268.933 474.8 287.6 495.733C301.733 511.6 320 523.333 340 529.6C354.133 533.867 376.8 533.867 389.333 529.467C414.933 520.533 433.867 499.2 456.667 453.333C470.4 425.733 480.133 402 494.133 361.2C510.4 314 521.6 274.533 519.467 272.267C518.267 271.2 479.867 271.067 254.933 271.6Z" fill="#0E2348"/>
<path d="M1208.27 356.533C1198.93 358.933 1185.87 365.733 1179.6 371.733C1169.87 381.067 1162.93 399.867 1164.53 412.933C1167.33 437.067 1181.2 451.333 1207.33 456.8C1238.53 463.467 1268.27 452.8 1278.8 431.2C1286.53 415.067 1285.87 396.4 1276.8 381.6C1264.53 361.467 1234.13 350.4 1208.27 356.533Z" fill="#0E2348"/>
<path d="M2465.33 358.667C2438.4 362.8 2394.27 369.2 2386.4 370L2378.67 370.8L2378.53 478.4C2378.27 672 2378.8 821.867 2379.47 829.467L2380.27 837.067L2406.53 837.467C2420.93 837.867 2444.4 837.867 2458.8 837.6L2485.07 837.067L2485.47 771.867C2485.87 730.933 2486.53 706.267 2487.33 705.467C2488.13 704.8 2494.4 703.467 2501.33 702.8C2508.27 702 2516.53 700.933 2519.47 700.533C2524.53 699.733 2525.2 700 2526.93 703.467C2532.8 714.667 2558.27 754.533 2582 789.6C2589.33 800.4 2599.6 815.467 2604.67 823.067L2614 836.8L2646.67 837.467C2664.67 837.733 2692.13 837.733 2707.6 837.333L2736 836.667L2730.27 828C2720.8 813.733 2696 778.933 2687.87 768.267C2683.73 762.933 2667.2 739.467 2649.07 713.333C2646.27 709.333 2641.33 702.133 2638 697.333C2634.67 692.533 2627.73 682.667 2622.8 675.333C2617.73 668 2612.13 660.533 2610.13 658.8C2608.27 656.933 2606.67 654.933 2606.67 654.267C2606.67 653.2 2616.8 640.133 2656.67 589.333C2664 580 2682 557.733 2696.67 540C2711.33 522.267 2724.13 506.533 2725.2 505.2C2726.93 502.8 2726.27 502.667 2699.87 502.533C2684.93 502.4 2658.53 502.4 2641.33 502.533L2610 502.8L2604.27 509.067C2601.2 512.533 2591.87 524.267 2583.6 535.333C2537.33 596.8 2528.13 609.067 2522.8 616.933C2519.6 621.6 2515.47 626.133 2513.73 626.8C2512 627.467 2505.2 628 2498.8 628H2487.07L2486.27 597.733C2485.73 581.2 2485.33 520 2485.33 461.733C2485.33 361.867 2485.2 356 2483.07 356.133C2481.73 356.133 2473.73 357.333 2465.33 358.667Z" fill="#0E2348"/>
<path d="M1352.67 366.667L1328.67 367.333L1328.27 383.333C1328.13 392.133 1328.27 410.8 1328.8 424.933L1329.6 450.4L1397.33 450.933C1434.67 451.2 1465.6 451.867 1466.27 452.4C1466.8 453.067 1467.07 540 1466.93 645.733L1466.53 838L1522.93 837.6C1554 837.333 1579.47 837.067 1579.47 836.933C1579.6 836.8 1580 750.4 1580.27 644.933C1580.67 539.6 1581.33 452.933 1581.87 452.267C1582.4 451.733 1614 451.2 1652 450.933L1721.07 450.533L1721.6 429.6C1721.87 418.133 1721.87 399.2 1721.6 387.733L1721.07 366.8L1717.47 366C1713.33 365.2 1387.6 365.733 1352.67 366.667Z" fill="#0E2348"/>
<path d="M978 494.8C971.333 495.333 962.267 496.4 958 497.333C947.333 499.467 929.867 506 924 509.867C921.467 511.6 915.733 515.2 911.333 517.867C902 523.467 884.533 540.4 878 550C870.8 560.4 868.267 563.333 867.2 562.267C866.667 561.733 865.333 548.267 864.267 532.267C863.2 516.4 862.267 503.2 862 502.933C861.6 502.4 761.067 502.4 760.533 502.933C760.133 503.467 759.867 623.2 759.867 756.267L760 838.667H809.067C836 838.667 860.133 838.267 862.8 837.867L867.733 837.067L868.267 743.467C868.933 651.067 868.933 649.867 871.867 641.467C881.467 613.733 899.733 592 921.6 582C935.867 575.6 960.133 575.467 973.733 582C982.4 586 993.733 597.6 997.467 606C1001.73 615.733 1002.53 635.467 1002.8 739.733L1002.93 837.333L1015.07 837.467C1044.53 837.867 1109.6 837.467 1110.27 836.933C1111.6 835.6 1110.8 608.4 1109.47 597.333C1105.2 564 1090.8 533.867 1072.27 519.733C1055.2 506.667 1028.93 496.8 1007.33 495.333C1001.47 494.933 995.2 494.4 993.333 494.133C991.467 494 984.533 494.267 978 494.8Z" fill="#0E2348"/>
<path d="M1803.2 494.667C1766.53 496.8 1738.13 503.467 1696.27 519.6L1683.73 524.533L1684.27 529.2C1685.07 535.2 1694.8 593.867 1695.2 594.267C1695.33 594.4 1700 592.267 1705.47 589.467C1726 578.667 1744.4 572.8 1772.67 567.867C1815.6 560.533 1850 564.4 1867.6 578.667C1878.4 587.467 1882.8 597.067 1883.73 614.267L1884.4 626.533L1880.67 627.467C1878.53 628 1867.6 628 1856.13 627.6C1829.6 626.533 1782.13 628.533 1769.33 631.2C1755.33 634.133 1731.2 642 1719.07 647.467C1707.73 652.667 1689.33 665.733 1680.4 674.933C1663.33 692.533 1653.47 725.733 1657.2 753.067C1664.27 803.333 1698.93 836.133 1753.33 844C1783.87 848.4 1819.6 842.933 1845.47 829.867C1858.53 823.333 1874.93 810.4 1883.6 799.867C1887.87 794.8 1891.87 790.8 1892.67 791.067C1893.33 791.333 1895.6 798.267 1897.47 806.533C1899.47 814.667 1902.4 825.067 1904 829.333L1906.93 837.333L1928.53 837.6C1949.07 837.733 2003.07 837.2 2003.6 836.8C2004.13 836.4 1994.4 787.2 1993.07 783.333C1992.27 780.8 1991.47 748.4 1991.2 696C1990.53 606 1989.87 596.267 1983.07 576C1976.8 557.067 1964.4 540 1948 527.333C1939.6 520.933 1919.87 510.533 1908.27 506.533C1894.93 501.867 1866.4 496.267 1852.67 495.333C1825.6 493.867 1820.27 493.733 1803.2 494.667ZM1882.8 686.667C1883.6 687.867 1884 697.2 1883.73 710C1883.33 729.867 1883.07 731.867 1879.73 739.067C1875.73 747.467 1863.6 761.067 1855.47 766.267C1842.67 774.4 1820.27 778.533 1803.07 776C1776.13 771.867 1762.4 757.867 1762.13 734C1762 728.133 1762.8 720.933 1763.6 717.867C1767.2 706.267 1779.47 695.067 1794.67 689.2C1805.2 685.2 1816.8 684.267 1850.4 684.4C1876.27 684.667 1881.6 684.933 1882.8 686.667Z" fill="#0E2348"/>
<path d="M2178 494.8C2148.4 496.667 2127.87 502 2101.47 514.8C2086.27 522.133 2083.6 524 2074 533.867C2055.6 552.667 2047.73 572 2047.6 599.333C2047.47 620.933 2052.8 638.533 2064.13 653.867C2071.47 664 2092.53 679.067 2108.67 685.733C2122.27 691.333 2143.87 698.533 2157.87 702.133C2206.93 714.4 2224.93 724.4 2227.33 740.667C2228.93 750.8 2221.73 761.6 2209.07 768.133C2194.67 775.467 2159.2 776.4 2122.4 770.133C2101.47 766.533 2085.87 761.467 2064 750.933C2056.27 747.2 2049.87 744.267 2049.87 744.4C2049.73 744.533 2049.47 762 2049.2 783.067L2048.67 821.6L2056.27 824.8C2066 828.8 2081.87 833.467 2102 838C2144.93 847.6 2193.2 848 2233.33 839.2C2305.07 823.333 2344 772.133 2330.67 711.467C2322 672.4 2292 651.333 2215.2 630.133C2183.87 621.467 2180.4 620.267 2171.33 615.733C2157.33 608.8 2150.67 600.533 2150.67 590.533C2150.67 577.333 2163.87 568 2186.67 565.2C2219.07 561.2 2269.33 569.867 2299.33 584.533C2304.4 587.067 2308.8 588.933 2309.07 588.667C2309.33 588.533 2309.87 572.133 2310.27 552.4L2310.93 516.4L2290.4 509.6C2265.73 501.333 2240.8 496.4 2219.33 495.333C2210.53 494.933 2201.2 494.4 2198.67 494.133C2196.13 494 2186.8 494.267 2178 494.8Z" fill="#0E2348"/>
<path d="M2889.47 494.8C2838.53 498.667 2788.4 523.6 2762.67 558C2747.33 578.133 2736.67 602.267 2730.53 629.6C2723.87 660.133 2723.47 677.6 2729.33 706.4C2735.6 737.733 2743.73 757.467 2758.4 777.333C2782.67 810.267 2813.33 829.467 2858.67 839.867C2876 843.867 2893.07 845.467 2918.67 845.467C2960.93 845.6 3001.47 838.667 3034.4 825.733L3046.67 820.933L3045.87 790.8C3045.2 760.8 3043.6 746.667 3041.2 746.667C3040.53 746.667 3034.13 749.467 3026.93 752.8C2997.07 766.8 2971.73 772.933 2938 774.133C2898.67 775.733 2878.4 769.2 2858 748.8C2842.93 733.733 2837.2 721.333 2835.87 701.333L2835.33 695.333L2846.67 694.4C2852.93 694 2904.93 693.6 2962.27 693.467C3024.27 693.333 3066.8 692.8 3067.33 692.133C3068.93 689.333 3070.13 657.6 3069.07 642.267C3066.4 601.467 3052.8 566.533 3029.47 541.067C3006.93 516.533 2965.73 498.267 2926 495.333C2920.13 494.933 2912.67 494.4 2909.33 494.133C2906 493.867 2897.07 494.133 2889.47 494.8ZM2920.53 562C2926.93 563.2 2935.2 565.6 2938.93 567.467C2947.73 571.867 2957.6 582.267 2962.53 592.267C2968.27 603.6 2973.2 629.2 2970.53 633.6C2969.07 636 2839.73 636.267 2837.33 633.867C2835.2 631.733 2839.07 610.133 2843.2 601.067C2852.53 580.267 2870.67 565.867 2892.67 562C2905.2 559.6 2907.07 559.733 2920.53 562Z" fill="#0E2348"/>
<path d="M3303.33 496.667C3284.4 500 3268.93 508.533 3253.2 524C3245.2 531.867 3239.07 540.4 3227.47 559.6L3223.6 566L3222.53 562C3222 559.733 3221.2 547.467 3220.8 534.667C3220.4 521.867 3219.73 509.333 3219.2 506.933L3218.4 502.667H3167.07H3115.87L3116 644.267C3116 722.267 3116.4 797.467 3116.93 811.467L3117.73 837.067L3143.87 837.6C3158.27 837.867 3182.13 837.867 3196.8 837.467L3223.6 837.067L3224.4 746.8C3225.2 649.067 3225.47 646.4 3232.8 631.6C3240.93 615.467 3254.27 600.267 3265.33 594.667C3284.93 584.667 3313.33 584.133 3337.07 593.333C3342.27 595.333 3346.93 596.667 3347.2 596.133C3347.6 595.6 3349.07 590.133 3350.67 584C3352.13 577.733 3355.47 566 3358 558C3364.27 537.6 3372 510.4 3372 508.533C3372 504.933 3348.67 497.867 3330.67 496C3315.47 494.4 3315.2 494.4 3303.33 496.667Z" fill="#0E2348"/>
<path d="M1240 500.667C1227.2 502.4 1206.67 504.267 1194.4 504.8L1172 505.733L1171.73 577.867C1171.47 658.933 1172.13 836.4 1172.67 837.067C1173.2 837.733 1277.47 837.733 1278 837.067C1278.93 836.133 1280.27 524.4 1279.33 511.333L1278.4 497.333L1270.93 497.467C1266.67 497.6 1252.8 499.067 1240 500.667Z" fill="#0E2348"/>
<path d="M692 643.733C686.533 653.733 679.6 665.867 676.533 670.667C673.467 675.467 666.933 685.867 661.867 694C640 728.8 617.867 758 596.133 780.4C578.933 798.267 550.533 820.4 527.333 834.133L520.667 838L562.667 838.667C585.733 839.067 626.667 839.067 653.733 838.8L702.667 838.267V731.867C702.533 673.2 702.4 625.333 702.267 625.333C702.133 625.333 697.467 633.6 692 643.733Z" fill="#0E2348"/>
<path d="M122.667 744.267C122.667 759.2 122.267 786.933 121.733 805.733L120.933 840H199.467H278L270 835.6C252.933 826.4 213.6 798.667 194 782.133C173.733 764.933 152.667 746.133 138.4 732.133L122.667 716.933V744.267Z" fill="#0E2348"/>
<path d="M200.5 427L19 499C65.5 588 200.5 827 393 827C674.5 827 744.5 322.5 886 94.5L610.5 5C610.5 5 534 589 376 578C282.553 571.494 260.5 538.5 200.5 427Z" fill="#1DBF95"/>
</svg>
