<svg width="3414" height="1024" xmlns="http://www.w3.org/2000/svg" fill="none">

 <g>
  <title>Layer 1</title>
  <path stroke="#1DBF95" id="svg_1" fill="#ffffff" d="m254.933,271.6l-157.5997,0.4l-0.2666,16.4c-0.1334,8.933 -0.1334,17.467 -0.1334,18.933c0.1334,1.467 0.6667,28 1.2,58.934c0.5334,31.066 1.3334,56.4 1.8667,56.4c0.533,0 5.067,-1.467 10.133,-3.2c98.134,-34 107.867,-37.2 109.734,-34.934c0.666,0.8 7.466,13.734 15.066,28.8c20.934,40.934 34,61.467 52.667,82.4c14.133,15.867 32.4,27.6 52.4,33.867c14.133,4.267 36.8,4.267 49.333,-0.133c25.6,-8.934 44.534,-30.267 67.334,-76.134c13.733,-27.6 23.466,-51.333 37.466,-92.133c16.267,-47.2 27.467,-86.667 25.334,-88.933c-1.2,-1.067 -39.6,-1.2 -264.534,-0.667z"/>
  <path stroke="#1DBF95" id="svg_2" fill="#ffffff" d="m1208.27,356.533c-9.34,2.4 -22.4,9.2 -28.67,15.2c-9.73,9.334 -16.67,28.134 -15.07,41.2c2.8,24.134 16.67,38.4 42.8,43.867c31.2,6.667 60.94,-4 71.47,-25.6c7.73,-16.133 7.07,-34.8 -2,-49.6c-12.27,-20.133 -42.67,-31.2 -68.53,-25.067z"/>
  <path stroke="#1DBF95" id="svg_3" fill="#ffffff" d="m2465.33,358.667c-26.93,4.133 -71.06,10.533 -78.93,11.333l-7.73,0.8l-0.14,107.6c-0.26,193.6 0.27,343.467 0.94,351.067l0.8,7.6l26.26,0.4c14.4,0.4 37.87,0.4 52.27,0.133l26.27,-0.533l0.4,-65.2c0.4,-40.934 1.06,-65.6 1.86,-66.4c0.8,-0.667 7.07,-2 14,-2.667c6.94,-0.8 15.2,-1.867 18.14,-2.267c5.06,-0.8 5.73,-0.533 7.46,2.934c5.87,11.2 31.34,51.066 55.07,86.133c7.33,10.8 17.6,25.867 22.67,33.467l9.33,13.733l32.67,0.667c18,0.266 45.46,0.266 60.93,-0.134l28.4,-0.666l-5.73,-8.667c-9.47,-14.267 -34.27,-49.067 -42.4,-59.733c-4.14,-5.334 -20.67,-28.8 -38.8,-54.934c-2.8,-4 -7.74,-11.2 -11.07,-16c-3.33,-4.8 -10.27,-14.666 -15.2,-22c-5.07,-7.333 -10.67,-14.8 -12.67,-16.533c-1.86,-1.867 -3.46,-3.867 -3.46,-4.533c0,-1.067 10.13,-14.134 50,-64.934c7.33,-9.333 25.33,-31.6 40,-49.333c14.66,-17.733 27.46,-33.467 28.53,-34.8c1.73,-2.4 1.07,-2.533 -25.33,-2.667c-14.94,-0.133 -41.34,-0.133 -58.54,0l-31.33,0.267l-5.73,6.267c-3.07,3.466 -12.4,15.2 -20.67,26.266c-46.27,61.467 -55.47,73.734 -60.8,81.6c-3.2,4.667 -7.33,9.2 -9.07,9.867c-1.73,0.667 -8.53,1.2 -14.93,1.2l-11.73,0l-0.8,-30.267c-0.54,-16.533 -0.94,-77.733 -0.94,-136c0,-99.866 -0.13,-105.733 -2.26,-105.6c-1.34,0 -9.34,1.2 -17.74,2.534z"/>
  <path stroke="#1DBF95" id="svg_4" fill="#ffffff" d="m1352.67,366.667l-24,0.666l-0.4,16c-0.14,8.8 0,27.467 0.53,41.6l0.8,25.467l67.73,0.533c37.34,0.267 68.27,0.934 68.94,1.467c0.53,0.667 0.8,87.6 0.66,193.333l-0.4,192.267l56.4,-0.4c31.07,-0.267 56.54,-0.533 56.54,-0.667c0.13,-0.133 0.53,-86.533 0.8,-192c0.4,-105.333 1.06,-192 1.6,-192.666c0.53,-0.534 32.13,-1.067 70.13,-1.334l69.07,-0.4l0.53,-20.933c0.27,-11.467 0.27,-30.4 0,-41.867l-0.53,-20.933l-3.6,-0.8c-4.14,-0.8 -329.87,-0.267 -364.8,0.667z"/>
  <path stroke="#1DBF95" id="svg_5" fill="#ffffff" d="m978,494.8c-6.667,0.533 -15.733,1.6 -20,2.533c-10.667,2.134 -28.133,8.667 -34,12.534c-2.533,1.733 -8.267,5.333 -12.667,8c-9.333,5.6 -26.8,22.533 -33.333,32.133c-7.2,10.4 -9.733,13.333 -10.8,12.267c-0.533,-0.534 -1.867,-14 -2.933,-30c-1.067,-15.867 -2,-29.067 -2.267,-29.334c-0.4,-0.533 -100.933,-0.533 -101.467,0c-0.4,0.534 -0.666,120.267 -0.666,253.334l0.133,82.4l49.067,0c26.933,0 51.066,-0.4 53.733,-0.8l4.933,-0.8l0.534,-93.6c0.666,-92.4 0.666,-93.6 3.6,-102c9.6,-27.734 27.866,-49.467 49.733,-59.467c14.267,-6.4 38.533,-6.533 52.133,0c8.667,4 20,15.6 23.734,24c4.263,9.733 5.063,29.467 5.333,133.733l0.13,97.6l12.14,0.134c29.46,0.4 94.53,0 95.2,-0.534c1.33,-1.333 0.53,-228.533 -0.8,-239.6c-4.27,-33.333 -18.67,-63.466 -37.2,-77.6c-17.07,-13.066 -43.34,-22.933 -64.94,-24.4c-5.86,-0.4 -12.13,-0.933 -13.997,-1.2c-1.866,-0.133 -8.8,0.134 -15.333,0.667z"/>
  <path stroke="#1DBF95" id="svg_6" fill="#ffffff" d="m1803.2,494.667c-36.67,2.133 -65.07,8.8 -106.93,24.933l-12.54,4.933l0.54,4.667c0.8,6 10.53,64.667 10.93,65.067c0.13,0.133 4.8,-2 10.27,-4.8c20.53,-10.8 38.93,-16.667 67.2,-21.6c42.93,-7.334 77.33,-3.467 94.93,10.8c10.8,8.8 15.2,18.4 16.13,35.6l0.67,12.266l-3.73,0.934c-2.14,0.533 -13.07,0.533 -24.54,0.133c-26.53,-1.067 -74,0.933 -86.8,3.6c-14,2.933 -38.13,10.8 -50.26,16.267c-11.34,5.2 -29.74,18.266 -38.67,27.466c-17.07,17.6 -26.93,50.8 -23.2,78.134c7.07,50.266 41.73,83.066 96.13,90.933c30.54,4.4 66.27,-1.067 92.14,-14.133c13.06,-6.534 29.46,-19.467 38.13,-30c4.27,-5.067 8.27,-9.067 9.07,-8.8c0.66,0.266 2.93,7.2 4.8,15.466c2,8.134 4.93,18.534 6.53,22.8l2.93,8l21.6,0.267c20.54,0.133 74.54,-0.4 75.07,-0.8c0.53,-0.4 -9.2,-49.6 -10.53,-53.467c-0.8,-2.533 -1.6,-34.933 -1.87,-87.333c-0.67,-90 -1.33,-99.733 -8.13,-120c-6.27,-18.933 -18.67,-36 -35.07,-48.667c-8.4,-6.4 -28.13,-16.8 -39.73,-20.8c-13.34,-4.666 -41.87,-10.266 -55.6,-11.2c-27.07,-1.466 -32.4,-1.6 -49.47,-0.666zm79.6,192c0.8,1.2 1.2,10.533 0.93,23.333c-0.4,19.867 -0.66,21.867 -4,29.067c-4,8.4 -16.13,22 -24.26,27.2c-12.8,8.133 -35.2,12.266 -52.4,9.733c-26.94,-4.133 -40.67,-18.133 -40.94,-42c-0.13,-5.867 0.67,-13.067 1.47,-16.133c3.6,-11.6 15.87,-22.8 31.07,-28.667c10.53,-4 22.13,-4.933 55.73,-4.8c25.87,0.267 31.2,0.533 32.4,2.267z"/>
  <path stroke="#1DBF95" id="svg_7" fill="#ffffff" d="m2178,494.8c-29.6,1.867 -50.13,7.2 -76.53,20c-15.2,7.333 -17.87,9.2 -27.47,19.067c-18.4,18.8 -26.27,38.133 -26.4,65.466c-0.13,21.6 5.2,39.2 16.53,54.534c7.34,10.133 28.4,25.2 44.54,31.866c13.6,5.6 35.2,12.8 49.2,16.4c49.06,12.267 67.06,22.267 69.46,38.534c1.6,10.133 -5.6,20.933 -18.26,27.466c-14.4,7.334 -49.87,8.267 -86.67,2c-20.93,-3.6 -36.53,-8.666 -58.4,-19.2c-7.73,-3.733 -14.13,-6.666 -14.13,-6.533c-0.14,0.133 -0.4,17.6 -0.67,38.667l-0.53,38.533l7.6,3.2c9.73,4 25.6,8.667 45.73,13.2c42.93,9.6 91.2,10 131.33,1.2c71.74,-15.867 110.67,-67.067 97.34,-127.733c-8.67,-39.067 -38.67,-60.134 -115.47,-81.334c-31.33,-8.666 -34.8,-9.866 -43.87,-14.4c-14,-6.933 -20.66,-15.2 -20.66,-25.2c0,-13.2 13.2,-22.533 36,-25.333c32.4,-4 82.66,4.667 112.66,19.333c5.07,2.534 9.47,4.4 9.74,4.134c0.26,-0.134 0.8,-16.534 1.2,-36.267l0.66,-36l-20.53,-6.8c-24.67,-8.267 -49.6,-13.2 -71.07,-14.267c-8.8,-0.4 -18.13,-0.933 -20.66,-1.2c-2.54,-0.133 -11.87,0.134 -20.67,0.667z"/>
  <path stroke="#1DBF95" id="svg_8" fill="#ffffff" d="m2889.47,494.8c-50.94,3.867 -101.07,28.8 -126.8,63.2c-15.34,20.133 -26,44.267 -32.14,71.6c-6.66,30.533 -7.06,48 -1.2,76.8c6.27,31.333 14.4,51.067 29.07,70.933c24.27,32.934 54.93,52.134 100.27,62.534c17.33,4 34.4,5.6 60,5.6c42.26,0.133 82.8,-6.8 115.73,-19.734l12.27,-4.8l-0.8,-30.133c-0.67,-30 -2.27,-44.133 -4.67,-44.133c-0.67,0 -7.07,2.8 -14.27,6.133c-29.86,14 -55.2,20.133 -88.93,21.333c-39.33,1.6 -59.6,-4.933 -80,-25.333c-15.07,-15.067 -20.8,-27.467 -22.13,-47.467l-0.54,-6l11.34,-0.933c6.26,-0.4 58.26,-0.8 115.6,-0.933c62,-0.134 104.53,-0.667 105.06,-1.334c1.6,-2.8 2.8,-34.533 1.74,-49.866c-2.67,-40.8 -16.27,-75.734 -39.6,-101.2c-22.54,-24.534 -63.74,-42.8 -103.47,-45.734c-5.87,-0.4 -13.33,-0.933 -16.67,-1.2c-3.33,-0.266 -12.26,0 -19.86,0.667zm31.06,67.2c6.4,1.2 14.67,3.6 18.4,5.467c8.8,4.4 18.67,14.8 23.6,24.8c5.74,11.333 10.67,36.933 8,41.333c-1.46,2.4 -130.8,2.667 -133.2,0.267c-2.13,-2.134 1.74,-23.734 5.87,-32.8c9.33,-20.8 27.47,-35.2 49.47,-39.067c12.53,-2.4 14.4,-2.267 27.86,0z"/>
  <path stroke="#1DBF95" id="svg_9" fill="#ffffff" d="m3303.33,496.667c-18.93,3.333 -34.4,11.866 -50.13,27.333c-8,7.867 -14.13,16.4 -25.73,35.6l-3.87,6.4l-1.07,-4c-0.53,-2.267 -1.33,-14.533 -1.73,-27.333c-0.4,-12.8 -1.07,-25.334 -1.6,-27.734l-0.8,-4.266l-51.33,0l-51.2,0l0.13,141.6c0,78 0.4,153.2 0.93,167.2l0.8,25.6l26.14,0.533c14.4,0.267 38.26,0.267 52.93,-0.133l26.8,-0.4l0.8,-90.267c0.8,-97.733 1.07,-100.4 8.4,-115.2c8.13,-16.133 21.47,-31.333 32.53,-36.933c19.6,-10 48,-10.534 71.74,-1.334c5.2,2 9.86,3.334 10.13,2.8c0.4,-0.533 1.87,-6 3.47,-12.133c1.46,-6.267 4.8,-18 7.33,-26c6.27,-20.4 14,-47.6 14,-49.467c0,-3.6 -23.33,-10.666 -41.33,-12.533c-15.2,-1.6 -15.47,-1.6 -27.34,0.667z"/>
  <path stroke="#1DBF95" id="svg_10" fill="#ffffff" d="m1240,500.667c-12.8,1.733 -33.33,3.6 -45.6,4.133l-22.4,0.933l-0.27,72.134c-0.26,81.066 0.4,258.533 0.94,259.2c0.53,0.666 104.8,0.666 105.33,0c0.93,-0.934 2.27,-312.667 1.33,-325.734l-0.93,-14l-7.47,0.134c-4.26,0.133 -18.13,1.6 -30.93,3.2z"/>
  <path stroke="#1DBF95" id="svg_11" fill="#ffffff" d="m692,643.733c-5.467,10 -12.4,22.134 -15.467,26.934c-3.066,4.8 -9.6,15.2 -14.666,23.333c-21.867,34.8 -44,64 -65.734,86.4c-17.2,17.867 -45.6,40 -68.8,53.733l-6.666,3.867l42,0.667c23.066,0.4 64,0.4 91.066,0.133l48.934,-0.533l0,-106.4c-0.134,-58.667 -0.267,-106.534 -0.4,-106.534c-0.134,0 -4.8,8.267 -10.267,18.4z"/>
  <path stroke="#1DBF95" id="svg_12" fill="#ffffff" d="m122.667,744.267c0,14.933 -0.4,42.666 -0.934,61.466l-0.8,34.267l78.534,0l78.533,0l-8,-4.4c-17.067,-9.2 -56.4,-36.933 -76,-53.467c-20.267,-17.2 -41.333,-36 -55.6,-50l-15.733,-15.2l0,27.334z"/>
  <path id="svg_13" fill="#1DBF95" d="m200.5,427l-181.5,72c46.5,89 181.5,328 374,328c281.5,0 351.5,-504.5 493,-732.5l-275.5,-89.5c0,0 -76.5,584 -234.5,573c-93.447,-6.506 -115.5,-39.5 -175.5,-151z"/>
 </g>
</svg>