<svg width="867" height="835" viewBox="0 0 867 835" fill="none" xmlns="http://www.w3.org/2000/svg">
<path d="M235.933 266.6L78.3333 267L78.0667 283.4C77.9333 292.333 77.9333 300.867 77.9333 302.333C78.0667 303.8 78.6 330.333 79.1333 361.267C79.6667 392.333 80.4667 417.667 81 417.667C81.5333 417.667 86.0667 416.2 91.1333 414.467C189.267 380.467 199 377.267 200.867 379.533C201.533 380.333 208.333 393.267 215.933 408.333C236.867 449.267 249.933 469.8 268.6 490.733C282.733 506.6 301 518.333 321 524.6C335.133 528.867 357.8 528.867 370.333 524.467C395.933 515.533 414.867 494.2 437.667 448.333C451.4 420.733 461.133 397 475.133 356.2C491.4 309 502.6 269.533 500.467 267.267C499.267 266.2 460.867 266.067 235.933 266.6Z" fill="#0E2348"/>
<path d="M673 638.733C667.533 648.733 660.6 660.867 657.533 665.667C654.467 670.467 647.933 680.867 642.867 689C621 723.8 598.867 753 577.133 775.4C559.933 793.267 531.533 815.4 508.333 829.133L501.667 833L543.667 833.667C566.733 834.067 607.667 834.067 634.733 833.8L683.667 833.267V726.867C683.533 668.2 683.4 620.333 683.267 620.333C683.133 620.333 678.467 628.6 673 638.733Z" fill="#0E2348"/>
<path d="M103.667 739.267C103.667 754.2 103.267 781.933 102.733 800.733L101.933 835H180.467H259L251 830.6C233.933 821.4 194.6 793.667 175 777.133C154.733 759.933 133.667 741.133 119.4 727.133L103.667 711.933V739.267Z" fill="#0E2348"/>
<path d="M181.5 422L0 494C46.5 583 181.5 822 374 822C655.5 822 725.5 317.5 867 89.5L591.5 0C591.5 0 515 584 357 573C263.553 566.494 241.5 533.5 181.5 422Z" fill="#1DBF95"/>
</svg>
